<svg xmlns="http://www.w3.org/2000/svg" width="1200" viewBox="0 0 1200 1200" height="1200" version="1.0"><path stroke-linecap="round" transform="matrix(5.93237 0 0 5.92906 291.858 525.244)" fill="none" d="M 0.500022 -0.000243108 L 103.442856 -0.000243108" stroke="#000"/><path stroke-linecap="round" transform="matrix(5.93237 0 0 5.92906 291.858 674.756)" fill="none" d="M 0.500022 0.000268002 L 103.442856 0.000268002" stroke="#000"/><path stroke-linecap="round" transform="matrix(0 -5.68673 5.92906 0 294.817 534.117)" fill="none" d="M 0.499964 -0.0000266003 L 1.14016 -0.0000266003" stroke="#000"/><path stroke-linecap="round" transform="matrix(0 -5.68673 5.92906 0 905.172 533.065)" fill="none" d="M 0.499865 0.0000363234 L 1.140061 0.0000363234" stroke="#000"/><path stroke-linecap="round" transform="matrix(0 -5.68673 5.92906 0 905.172 677.715)" fill="none" d="M 0.500081 0.0000363234 L 1.140277 0.0000363234" stroke="#000"/><path stroke-linecap="round" transform="matrix(0 -5.68673 5.92906 0 294.817 676.649)" fill="none" d="M 0.500134 -0.0000266003 L 1.140331 -0.0000266003" stroke="#000"/><g><g><g><path d="M 42.875 0 L 1.15625 -100.5625 L 7.90625 -100.5625 L 46.03125 -7.1875 L 84.296875 -100.5625 L 90.921875 -100.5625 L 49.203125 0 Z M 42.875 0" transform="translate(299.051 652.896)"/></g></g></g><g><g><g><path d="M 17.265625 0 L 17.265625 -100.5625 L 23.3125 -100.5625 L 23.3125 0 Z M 17.265625 0" transform="translate(391.12 652.896)"/></g></g></g><g><g><g><path d="M 57.25 -100.5625 C 66.65625 -100.5625 75.3125 -98.328125 83.21875 -93.859375 C 91.132812 -89.398438 97.394531 -83.3125 102 -75.59375 C 106.601562 -67.875 108.90625 -59.410156 108.90625 -50.203125 C 108.90625 -41.097656 106.601562 -32.679688 102 -24.953125 C 97.394531 -17.234375 91.109375 -11.144531 83.140625 -6.6875 C 75.179688 -2.226562 66.503906 0 57.109375 0 L 17.265625 0 L 17.265625 -100.5625 Z M 57.25 -5.890625 C 65.5 -5.890625 73.097656 -7.878906 80.046875 -11.859375 C 87.003906 -15.847656 92.519531 -21.222656 96.59375 -27.984375 C 100.675781 -34.742188 102.71875 -42.148438 102.71875 -50.203125 C 102.71875 -58.359375 100.675781 -65.816406 96.59375 -72.578125 C 92.519531 -79.335938 87.003906 -84.707031 80.046875 -88.6875 C 73.097656 -92.664062 65.453125 -94.65625 57.109375 -94.65625 L 23.3125 -94.65625 L 23.3125 -5.890625 Z M 57.25 -5.890625" transform="translate(431.689 652.896)"/></g></g></g><g><g><g><path d="M 17.265625 0 L 17.265625 -100.5625 L 82.140625 -100.5625 L 82.140625 -94.65625 L 23.3125 -94.65625 L 23.3125 -54.515625 L 75.671875 -54.515625 L 75.671875 -48.484375 L 23.3125 -48.484375 L 23.3125 -5.890625 L 84.015625 -5.890625 L 84.015625 0 Z M 17.265625 0" transform="translate(547.207 652.896)"/></g></g></g><g><g><g><path d="M 42.875 0 L 1.15625 -100.5625 L 7.90625 -100.5625 L 46.03125 -7.1875 L 84.296875 -100.5625 L 90.921875 -100.5625 L 49.203125 0 Z M 42.875 0" transform="translate(640.283 652.896)"/></g></g></g><g><g><g><path d="M 17.265625 0 L 17.265625 -100.5625 L 82.140625 -100.5625 L 82.140625 -94.65625 L 23.3125 -94.65625 L 23.3125 -54.515625 L 75.671875 -54.515625 L 75.671875 -48.484375 L 23.3125 -48.484375 L 23.3125 -5.890625 L 84.015625 -5.890625 L 84.015625 0 Z M 17.265625 0" transform="translate(732.353 652.896)"/></g></g></g><g><g><g><path d="M 1.71875 -94.65625 L 1.71875 -100.5625 L 75.671875 -100.5625 L 75.671875 -94.65625 L 41.71875 -94.65625 L 41.71875 0 L 35.671875 0 L 35.671875 -94.65625 Z M 1.71875 -94.65625" transform="translate(825.429 652.896)"/></g></g></g></svg>