<svg xmlns="http://www.w3.org/2000/svg" width="1200" viewBox="0 0 1200 1200" height="1200" version="1.0"><g fill="#FFF"><g><g><path d="M 42.875 0 L 1.15625 -100.5625 L 7.90625 -100.5625 L 46.046875 -7.1875 L 84.3125 -100.5625 L 90.921875 -100.5625 L 49.203125 0 Z M 42.875 0" transform="translate(299.023 652.593)"/></g></g></g><g fill="#FFF"><g><g><path d="M 17.265625 0 L 17.265625 -100.5625 L 23.3125 -100.5625 L 23.3125 0 Z M 17.265625 0" transform="translate(391.1 652.593)"/></g></g></g><g fill="#FFF"><g><g><path d="M 57.265625 -100.5625 C 66.660156 -100.5625 75.3125 -98.332031 83.21875 -93.875 C 91.132812 -89.414062 97.394531 -83.328125 102 -75.609375 C 106.601562 -67.890625 108.90625 -59.425781 108.90625 -50.21875 C 108.90625 -41.101562 106.601562 -32.679688 102 -24.953125 C 97.394531 -17.234375 91.113281 -11.144531 83.15625 -6.6875 C 75.195312 -2.226562 66.519531 0 57.125 0 L 17.265625 0 L 17.265625 -100.5625 Z M 57.265625 -5.90625 C 65.515625 -5.90625 73.113281 -7.894531 80.0625 -11.875 C 87.019531 -15.851562 92.535156 -21.222656 96.609375 -27.984375 C 100.691406 -34.742188 102.734375 -42.15625 102.734375 -50.21875 C 102.734375 -58.363281 100.691406 -65.816406 96.609375 -72.578125 C 92.535156 -79.347656 87.019531 -84.722656 80.0625 -88.703125 C 73.113281 -92.679688 65.46875 -94.671875 57.125 -94.671875 L 23.3125 -94.671875 L 23.3125 -5.90625 Z M 57.265625 -5.90625" transform="translate(431.672 652.593)"/></g></g></g><g fill="#FFF"><g><g><path d="M 17.265625 0 L 17.265625 -100.5625 L 82.15625 -100.5625 L 82.15625 -94.671875 L 23.3125 -94.671875 L 23.3125 -54.53125 L 75.671875 -54.53125 L 75.671875 -48.484375 L 23.3125 -48.484375 L 23.3125 -5.90625 L 84.015625 -5.90625 L 84.015625 0 Z M 17.265625 0" transform="translate(547.2 652.593)"/></g></g></g><g fill="#FFF"><g><g><path d="M 42.875 0 L 1.15625 -100.5625 L 7.90625 -100.5625 L 46.046875 -7.1875 L 84.3125 -100.5625 L 90.921875 -100.5625 L 49.203125 0 Z M 42.875 0" transform="translate(640.285 652.593)"/></g></g></g><g fill="#FFF"><g><g><path d="M 17.265625 0 L 17.265625 -100.5625 L 82.15625 -100.5625 L 82.15625 -94.671875 L 23.3125 -94.671875 L 23.3125 -54.53125 L 75.671875 -54.53125 L 75.671875 -48.484375 L 23.3125 -48.484375 L 23.3125 -5.90625 L 84.015625 -5.90625 L 84.015625 0 Z M 17.265625 0" transform="translate(732.363 652.593)"/></g></g></g><g fill="#FFF"><g><g><path d="M 1.71875 -94.671875 L 1.71875 -100.5625 L 75.671875 -100.5625 L 75.671875 -94.671875 L 41.71875 -94.671875 L 41.71875 0 L 35.6875 0 L 35.6875 -94.671875 Z M 1.71875 -94.671875" transform="translate(825.447 652.593)"/></g></g></g><path stroke-linecap="round" transform="matrix(5.93237 0 0 5.92906 291.858 525.243)" fill="none" d="M 0.500022 -0.000210725 L 103.442856 -0.000210725" stroke="#FFF"/><path stroke-linecap="round" transform="matrix(5.93237 0 0 5.92906 291.858 674.756)" fill="none" d="M 0.500022 0.000276098 L 103.442856 0.000276098" stroke="#FFF"/><path stroke-linecap="round" transform="matrix(0 -5.68673 5.92906 0 294.817 534.117)" fill="none" d="M 0.499951 -0.0000266003 L 1.140148 -0.0000266003" stroke="#FFF"/><path stroke-linecap="round" transform="matrix(0 -5.68673 5.92906 0 905.172 533.065)" fill="none" d="M 0.499844 0.0000363234 L 1.14004 0.0000363234" stroke="#FFF"/><path stroke-linecap="round" transform="matrix(0 -5.68673 5.92906 0 905.172 677.715)" fill="none" d="M 0.50006 0.0000363234 L 1.140256 0.0000363234" stroke="#FFF"/><path stroke-linecap="round" transform="matrix(0 -5.68673 5.92906 0 294.817 676.649)" fill="none" d="M 0.500121 -0.0000266003 L 1.140318 -0.0000266003" stroke="#FFF"/></svg>