<?xml version="1.0" encoding="utf-8"?>
<svg xmlns="http://www.w3.org/2000/svg" width="696" height="240" version="1.0" style="" viewBox="240 492 696 240">
  <rect id="backgroundrect" width="100%" height="100%" x="0" y="0" fill="none" stroke="none" />
  <g class="currentLayer" style="">
    <title>Layer 1</title>
    <path stroke-linecap="round" fill="#ffffff" d="M294.82431551214,525.2425585980816 L905.5192956487201,525.2425585980816 " stroke="#ffffff" id="svg_1" class="" fill-opacity="1" stroke-opacity="1" />
    <path stroke-linecap="round" fill="#ffffff" d="M294.82431551214,674.7575889999381 L905.5192956487201,674.7575889999381 " stroke="#ffffff" id="svg_2" class="" fill-opacity="1" stroke-opacity="1" />
    <path stroke-linecap="round" fill="none" d="M294.8168422852253,531.27383972228 L294.8168422852253,527.6332179231999 " stroke="#ffffff" id="svg_3" class="" stroke-opacity="1" />
    <path stroke-linecap="round" fill="none" d="M905.1722153636181,530.22240270855 L905.1722153636181,526.58178090947 " stroke="#ffffff" id="svg_4" class="" stroke-opacity="1" />
    <path stroke-linecap="round" fill="none" d="M905.1722153636181,674.8711743748701 L905.1722153636181,671.23055257579 " stroke="#ffffff" id="svg_5" class="" stroke-opacity="1" />
    <path stroke-linecap="round" fill="none" d="M294.8168422852253,673.80487297818 L294.8168422852253,670.16424549237 " stroke="#ffffff" id="svg_6" class="" stroke-opacity="1" />
    <g id="svg_7" class="" fill="#ffffff" fill-opacity="1">
      <g id="svg_8" fill="#ffffff" fill-opacity="1">
        <g id="svg_9" fill="#ffffff" fill-opacity="1">
          <path d="M341.9259948730469,652.89599609375 L300.2072448730469,552.33349609375 L306.9572448730469,552.33349609375 L345.0822448730469,645.70849609375 L383.3478698730469,552.33349609375 L389.9728698730469,552.33349609375 L348.2541198730469,652.89599609375 zM341.9259948730469,652.89599609375 " id="svg_10" fill="#ffffff" fill-opacity="1" />
        </g>
      </g>
    </g>
    <g id="svg_11" class="" fill="#ffffff" fill-opacity="1">
      <g id="svg_12" fill="#ffffff" fill-opacity="1">
        <g id="svg_13" fill="#ffffff" fill-opacity="1">
          <path d="M408.3856201171875,652.89599609375 L408.3856201171875,552.33349609375 L414.4324951171875,552.33349609375 L414.4324951171875,652.89599609375 zM408.3856201171875,652.89599609375 " id="svg_14" fill="#ffffff" fill-opacity="1" />
        </g>
      </g>
    </g>
    <g id="svg_15" class="" fill="#ffffff" fill-opacity="1">
      <g id="svg_16" fill="#ffffff" fill-opacity="1">
        <g id="svg_17" fill="#ffffff" fill-opacity="1">
          <path d="M488.9389953613281,552.33349609375 C498.3452453613281,552.33349609375 507.0014953613281,554.56787109375 514.9077453613281,559.03662109375 C522.8218073613282,563.4975580937501 529.0835263613282,569.58349609375 533.6889953613281,577.30224609375 C538.2905573613282,585.02099609375 540.5952453613281,593.48584009375 540.5952453613281,602.69287109375 C540.5952453613281,611.79834009375 538.2905573613282,620.2163080937501 533.6889953613281,627.94287109375 C529.0835263613282,635.66162109375 522.7983703613281,641.75146509375 514.8296203613281,646.20849609375 C506.8686833613281,650.66943409375 498.19290136132815,652.89599609375 488.7983703613281,652.89599609375 L448.9546203613281,652.89599609375 L448.9546203613281,552.33349609375 zM488.9389953613281,647.00537109375 C497.1889953613281,647.00537109375 504.78665136132815,645.01709009375 511.7358703613281,641.03662109375 C518.6929013613282,637.04834009375 524.2085263613282,631.67334009375 528.2827453613281,624.91162109375 C532.3647763613282,618.1538080937501 534.4077453613281,610.7475580937501 534.4077453613281,602.69287109375 C534.4077453613281,594.53662109375 532.3647763613282,587.07959009375 528.2827453613281,580.31787109375 C524.2085263613282,573.5600580937501 518.6929013613282,568.18896509375 511.7358703613281,564.20849609375 C504.78665136132815,560.2319340937499 497.1421203613281,558.23974609375 488.7983703613281,558.23974609375 L455.0014953613281,558.23974609375 L455.0014953613281,647.00537109375 zM488.9389953613281,647.00537109375 " id="svg_18" fill="#ffffff" fill-opacity="1" />
        </g>
      </g>
    </g>
    <g id="svg_19" class="" fill="#ffffff" fill-opacity="1">
      <g id="svg_20" fill="#ffffff" fill-opacity="1">
        <g id="svg_21" fill="#ffffff" fill-opacity="1">
          <path d="M564.4725952148438,652.89599609375 L564.4725952148438,552.33349609375 L629.3475952148438,552.33349609375 L629.3475952148438,558.23974609375 L570.5194702148438,558.23974609375 L570.5194702148438,598.38037109375 L622.8788452148438,598.38037109375 L622.8788452148438,604.41162109375 L570.5194702148438,604.41162109375 L570.5194702148438,647.00537109375 L631.2225952148438,647.00537109375 L631.2225952148438,652.89599609375 zM564.4725952148438,652.89599609375 " id="svg_22" fill="#ffffff" fill-opacity="1" />
        </g>
      </g>
    </g>
    <g id="svg_23" class="" fill="#ffffff" fill-opacity="1">
      <g id="svg_24" fill="#ffffff" fill-opacity="1">
        <g id="svg_25" fill="#ffffff" fill-opacity="1">
          <path d="M683.1580200195312,652.89599609375 L641.4392700195312,552.33349609375 L648.1892700195312,552.33349609375 L686.3142700195312,645.70849609375 L724.5798950195312,552.33349609375 L731.2048950195312,552.33349609375 L689.4861450195312,652.89599609375 zM683.1580200195312,652.89599609375 " id="svg_26" fill="#ffffff" fill-opacity="1" />
        </g>
      </g>
    </g>
    <g id="svg_27" class="" fill="#ffffff" fill-opacity="1">
      <g id="svg_28" fill="#ffffff" fill-opacity="1">
        <g id="svg_29" fill="#ffffff" fill-opacity="1">
          <path d="M749.61865234375,652.89599609375 L749.61865234375,552.33349609375 L814.49365234375,552.33349609375 L814.49365234375,558.23974609375 L755.66552734375,558.23974609375 L755.66552734375,598.38037109375 L808.02490234375,598.38037109375 L808.02490234375,604.41162109375 L755.66552734375,604.41162109375 L755.66552734375,647.00537109375 L816.36865234375,647.00537109375 L816.36865234375,652.89599609375 zM749.61865234375,652.89599609375 " id="svg_30" fill="#ffffff" fill-opacity="1" />
        </g>
      </g>
    </g>
    <g id="svg_31" class="" fill="#ffffff" fill-opacity="1">
      <g id="svg_32" fill="#ffffff" fill-opacity="1">
        <g id="svg_33" fill="#ffffff" fill-opacity="1">
          <path d="M827.1477661132812,558.23974609375 L827.1477661132812,552.33349609375 L901.1008911132812,552.33349609375 L901.1008911132812,558.23974609375 L867.1477661132812,558.23974609375 L867.1477661132812,652.89599609375 L861.1008911132812,652.89599609375 L861.1008911132812,558.23974609375 zM827.1477661132812,558.23974609375 " id="svg_34" fill="#ffffff" fill-opacity="1" />
        </g>
      </g>
    </g>
  </g>
</svg>