<?xml version="1.0" encoding="UTF-8"?>
<svg xmlns="http://www.w3.org/2000/svg" xmlns:xlink="http://www.w3.org/1999/xlink" width="20px" height="21px" viewBox="0 0 20 20" version="1.1">
<g id="surface1">
<path style=" stroke:none;fill-rule:evenodd;fill:rgb(0%,0%,0%);fill-opacity:1;" d="M 18.980469 9.222656 L 5.972656 11.28125 C 4.761719 12.3125 6.042969 13.203125 6.042969 13.203125 L 18.769531 13.273438 L 18.769531 14.988281 L 4.761719 14.851562 C 4.195312 14.507812 3.769531 13.410156 3.625 12.449219 C 3.484375 11.488281 4.550781 10.457031 4.550781 10.457031 L 2.347656 2.425781 L 1.136719 2.425781 L 0.851562 0.914062 L 3.910156 0.914062 L 4.691406 3.386719 L 19.265625 3.316406 Z M 7.25 15.605469 C 8.3125 15.605469 9.171875 16.4375 9.171875 17.460938 C 9.171875 18.484375 8.3125 19.3125 7.25 19.3125 C 6.191406 19.3125 5.332031 18.484375 5.332031 17.460938 C 5.332031 16.4375 6.191406 15.605469 7.25 15.605469 Z M 16.636719 15.605469 C 17.695312 15.605469 18.554688 16.4375 18.554688 17.460938 C 18.554688 18.484375 17.695312 19.3125 16.636719 19.3125 C 15.574219 19.3125 14.714844 18.484375 14.714844 17.460938 C 14.714844 16.4375 15.574219 15.605469 16.636719 15.605469 Z M 16.636719 15.605469 "/>
</g>
</svg>
